# xmcd
#
# Track frame offsets:
#	151
#	16346
#	30230
#	41236
#	57235
#	75206
#	96319
#	116768
#	128606
#	140051
#	154669
#	166237
#	179476
#	193712
#	216619
#	233246
#
# Disc length: 3321 seconds
#
# Revision: 1
# Processed by: cddbd v1.5PL3 Copyright (c) Steve Scherf et al.
# Submitted via: CDex 1.50Beta5
#
DISCID=d90cf710
DTITLE=My Bloody Valentine - This Is Your Bloody Valentine/Ecstasy And Wine
DYEAR=1989
DGENRE=Rock
TTITLE0=Forever And Again
TTITLE1=Homelovin' Guy
TTITLE2=Don't Cramp My Style
TTITLE3=Tiger In My Tank
TTITLE4=The Love Gang
TTITLE5=Inferno
TTITLE6=The Last Supper
TTITLE7=Strawberry Wine
TTITLE8=Never Say Goodbye
TTITLE9=Can I Touch You
TTITLE10=She Loves You No Less
TTITLE11=The Things I Miss
TTITLE12=I Don't Need You
TTITLE13=(You're) Safe In Your Sleep (From This Girl)〜Glair
TTITLE14=You've Got Nothing
TTITLE15=(Please) Lose Yourself In Me
EXTD=
EXTT0=
EXTT1=
EXTT2=
EXTT3=
EXTT4=
EXTT5=
EXTT6=
EXTT7=
EXTT8=
EXTT9=
EXTT10=
EXTT11=
EXTT12=
EXTT13=
EXTT14=
EXTT15=
PLAYORDER=
